<?xml version="1.0" encoding="UTF-8"?>
<svg xmlns="http://www.w3.org/2000/svg" xmlns:xlink="http://www.w3.org/1999/xlink" width="130px" height="126px" viewBox="0 0 130 126" version="1.1">
<g id="surface1">
<path style=" stroke:none;fill-rule:evenodd;fill:rgb(0%,0%,0%);fill-opacity:1;" d="M 115.160156 80.785156 L 67.40625 80.785156 C 72.824219 80.316406 77.847656 77.84375 81.433594 73.878906 C 85.019531 69.914062 86.894531 64.761719 86.660156 59.492188 C 86.429688 54.226562 84.117188 49.246094 80.195312 45.589844 C 76.277344 41.933594 71.054688 39.882812 65.613281 39.859375 L 50.011719 39.859375 C 52.34375 36.820312 54.011719 33.351562 54.914062 29.667969 C 55.816406 25.980469 55.933594 22.15625 55.257812 18.425781 C 54.582031 14.695312 53.128906 11.136719 50.988281 7.96875 C 48.84375 4.800781 46.058594 2.089844 42.796875 0 L 115.160156 0 C 118.484375 0.00390625 121.667969 1.285156 124.011719 3.566406 C 126.359375 5.84375 127.679688 8.929688 127.679688 12.148438 L 127.679688 68.660156 C 127.679688 75.355469 122.070312 80.792969 115.160156 80.792969 Z M 26.910156 39.878906 C 29.195312 39.929688 31.46875 39.539062 33.597656 38.726562 C 35.726562 37.914062 37.664062 36.695312 39.300781 35.148438 C 40.9375 33.597656 42.238281 31.75 43.125 29.707031 C 44.011719 27.664062 44.46875 25.46875 44.46875 23.25 C 44.46875 21.035156 44.011719 18.839844 43.125 16.796875 C 42.238281 14.753906 40.9375 12.902344 39.300781 11.355469 C 37.664062 9.804688 35.726562 8.589844 33.597656 7.777344 C 31.46875 6.964844 29.195312 6.574219 26.910156 6.625 C 22.429688 6.726562 18.167969 8.519531 15.035156 11.628906 C 11.902344 14.734375 10.148438 18.90625 10.148438 23.25 C 10.148438 27.59375 11.902344 31.765625 15.035156 34.875 C 18.167969 37.980469 22.429688 39.777344 26.910156 39.878906 Z M 75.148438 60.363281 C 75.148438 55.25 70.878906 51.109375 65.613281 51.109375 L 26.917969 51.109375 C 20.394531 51.109375 14.132812 53.625 9.519531 58.097656 C 4.90625 62.570312 2.3125 68.636719 2.3125 74.960938 L 2.3125 85.804688 C 2.3125 90.59375 6.324219 94.472656 11.261719 94.472656 L 12.859375 94.472656 L 15.480469 117.964844 C 15.722656 120.167969 16.800781 122.207031 18.503906 123.691406 C 20.203125 125.175781 22.410156 125.996094 24.699219 126 L 29.359375 126 C 31.601562 126 33.765625 125.214844 35.453125 123.789062 C 37.144531 122.363281 38.246094 120.390625 38.554688 118.242188 L 45.546875 69.605469 L 65.601562 69.605469 C 70.867188 69.605469 75.140625 65.464844 75.140625 60.363281 Z M 75.148438 60.363281 "/>
</g>
</svg>
