<?xml version="1.0" encoding="UTF-8"?>
<svg xmlns="http://www.w3.org/2000/svg" xmlns:xlink="http://www.w3.org/1999/xlink" width="114px" height="126px" viewBox="0 0 114 126" version="1.1">
<g id="surface1">
<path style=" stroke:none;fill-rule:nonzero;fill:rgb(0%,0%,0%);fill-opacity:1;" d="M 109.25 10.5 L 4.75 10.5 C 3.488281 10.5 2.28125 11.054688 1.390625 12.039062 C 0.5 13.023438 0 14.359375 0 15.75 L 0 110.25 C 0 111.640625 0.5 112.976562 1.390625 113.960938 C 2.28125 114.945312 3.488281 115.5 4.75 115.5 L 109.25 115.5 C 110.511719 115.5 111.71875 114.945312 112.609375 113.960938 C 113.5 112.976562 114 111.640625 114 110.25 L 114 15.75 C 114 14.359375 113.5 13.023438 112.609375 12.039062 C 111.71875 11.054688 110.511719 10.5 109.25 10.5 Z M 104.5 105 L 95 105 L 95 99.75 L 71.25 99.75 L 71.25 105 L 9.5 105 L 9.5 21 L 104.5 21 Z M 48.878906 50.976562 C 48.878906 48.597656 49.734375 46.3125 51.257812 44.628906 C 52.78125 42.945312 54.847656 42 57 42 C 61.511719 42 65.121094 46.042969 65.121094 50.976562 C 65.121094 55.964844 61.511719 60.007812 57 60.007812 C 52.488281 60.007812 48.878906 55.964844 48.878906 50.976562 Z M 27.121094 59.273438 C 27.121094 55.546875 29.878906 52.5 33.25 52.5 C 34.875 52.5 36.433594 53.214844 37.582031 54.484375 C 38.730469 55.753906 39.378906 57.476562 39.378906 59.273438 C 39.378906 63 36.621094 65.992188 33.25 65.992188 C 29.878906 65.992188 27.121094 63 27.121094 59.273438 Z M 74.621094 59.273438 C 74.621094 57.476562 75.269531 55.753906 76.417969 54.484375 C 77.566406 53.214844 79.125 52.5 80.75 52.5 C 82.375 52.5 83.933594 53.214844 85.082031 54.484375 C 86.230469 55.753906 86.878906 57.476562 86.878906 59.273438 C 86.878906 63 84.121094 65.992188 80.75 65.992188 C 77.378906 65.992188 74.621094 63 74.621094 59.273438 Z M 95 79.484375 L 95 84 L 19 84 L 19 79.484375 C 19 74.550781 26.363281 70.507812 33.25 70.507812 C 35.863281 70.507812 38.523438 71.085938 40.851562 72.082031 C 44.414062 68.460938 50.824219 65.992188 57 65.992188 C 63.175781 65.992188 69.585938 68.460938 73.148438 72.082031 C 75.476562 71.085938 78.136719 70.507812 80.75 70.507812 C 87.636719 70.507812 95 74.550781 95 79.484375 Z M 95 79.484375 "/>
</g>
</svg>
