<svg width="142" height="126" viewBox="0 0 142 126" fill="none" xmlns="http://www.w3.org/2000/svg">
<path d="M115.375 118.125H93.1875V110.25H115.375V102.375H102.062C97.1724 102.375 93.1875 98.8431 93.1875 94.5V86.625C93.1875 82.2819 97.1724 78.75 102.062 78.75H124.25V86.625H102.062V94.5H115.375C120.27 94.5 124.25 98.0359 124.25 102.375V110.25C124.25 114.593 120.27 118.125 115.375 118.125ZM44.375 78.75H71V86.625H44.375V78.75ZM44.375 63H79.875V70.875H44.375V63Z" fill="black"/>
<path d="M106.5 66.906H115.375V39.375C115.375 38.9813 115.375 38.1938 114.931 37.8C114.487 37.4063 114.488 37.0125 114.044 36.6188L82.9813 9.05625C82.5375 8.6625 82.0938 8.26875 81.65 8.26875C81.2062 7.875 80.3187 7.875 79.875 7.875H35.5C33.2812 7.875 31.0625 8.6625 29.2875 10.2375C27.5125 11.8125 26.625 13.7812 26.625 15.75V110.25C26.625 112.219 27.5125 114.188 29.2875 115.762C31.0625 117.338 33.2812 118.125 35.5 118.125H70.7648V110.25H35.5V15.75H71V39.375C71 41.3438 71.8875 43.3125 73.6625 44.8875C75.4375 46.4625 77.6562 47.25 79.875 47.25H106.5V66.906ZM79.875 39.375V17.325L104.725 39.375H79.875Z" fill="black"/>
</svg>
